<svg xmlns="http://www.w3.org/2000/svg" width="162.477" height="74.157" viewBox="0 0 162.477 74.157">
  <g id="Grupo_1003" data-name="Grupo 1003" transform="translate(-773.195 -787.754)">
    <path id="Caminho_410" data-name="Caminho 410" d="M692.138,587.872a1.45,1.45,0,0,1-1.446-1.484v-8.814a5.032,5.032,0,0,0-10.064,0v8.814a1.468,1.468,0,0,1-1.484,1.484,1.45,1.45,0,0,1-1.446-1.484V561.654a1.465,1.465,0,0,1,2.93,0v8.929a.415.415,0,0,0,.218.365.417.417,0,0,0,.426-.018,7.825,7.825,0,0,1,4.369-1.3,7.971,7.971,0,0,1,7.981,7.943v8.814a1.486,1.486,0,0,1-1.484,1.484" transform="translate(140 274.001)" fill="#59595c"/>
    <path id="Caminho_411" data-name="Caminho 411" d="M707.337,572.56a6.243,6.243,0,0,0-5.863,4.152.416.416,0,0,0,.391.556h10.981a.416.416,0,0,0,.4-.536,5.989,5.989,0,0,0-5.907-4.172m0,15.312a9.121,9.121,0,1,1,0-18.241,8.932,8.932,0,0,1,9.12,9.12,1.449,1.449,0,0,1-1.484,1.446H701.865a.416.416,0,0,0-.392.553,6.235,6.235,0,0,0,5.864,4.192,7.91,7.91,0,0,0,4.481-1.32,1.022,1.022,0,0,1,.572-.169,1.488,1.488,0,0,1,.571,2.853,8.818,8.818,0,0,1-5.438,1.566Z" transform="translate(140 274.001)" fill="#59595c"/>
    <path id="Caminho_412" data-name="Caminho 412" d="M730.323,572.6a6.389,6.389,0,0,0-6.3,6.3,6.184,6.184,0,0,0,6.3,6.04,5.907,5.907,0,0,0,6.039-6.04,6.183,6.183,0,0,0-6.039-6.3m7.447,15.235a1.593,1.593,0,0,1-1.408-1.484.415.415,0,0,0-.682-.319,7.892,7.892,0,0,1-5.357,1.8,8.867,8.867,0,0,1-9.2-8.931,9.1,9.1,0,0,1,9.2-9.2,8.868,8.868,0,0,1,8.931,9.2v7.447a1.42,1.42,0,0,1-1.484,1.484" transform="translate(140 274.001)" fill="#59595c"/>
    <path id="Caminho_413" data-name="Caminho 413" d="M745.294,587.91a1.468,1.468,0,0,1-1.483-1.484V561.692a1.465,1.465,0,0,1,2.929,0v24.734a1.45,1.45,0,0,1-1.446,1.484" transform="translate(140 274.001)" fill="#59595c"/>
    <path id="Caminho_414" data-name="Caminho 414" d="M757.451,587.91a1.485,1.485,0,0,1-1.445-1.484V573.014a.416.416,0,0,0-.416-.416h-2.736a1.484,1.484,0,0,1-1.446-1.484,1.447,1.447,0,0,1,1.446-1.445h2.736a.416.416,0,0,0,.416-.416v-7.6a1.465,1.465,0,0,1,2.93,0v7.6a.415.415,0,0,0,.415.416h2.7a1.45,1.45,0,0,1,1.484,1.445,1.485,1.485,0,0,1-1.484,1.484h-2.7a.415.415,0,0,0-.415.416v13.412a1.486,1.486,0,0,1-1.485,1.484" transform="translate(140 274.001)" fill="#59595c"/>
    <path id="Caminho_415" data-name="Caminho 415" d="M782.643,587.872a1.45,1.45,0,0,1-1.447-1.484v-8.814a5.032,5.032,0,0,0-10.063,0v8.814a1.469,1.469,0,0,1-1.485,1.484,1.449,1.449,0,0,1-1.445-1.484V561.654a1.465,1.465,0,0,1,2.93,0v8.929a.414.414,0,0,0,.217.365.417.417,0,0,0,.426-.018,7.828,7.828,0,0,1,4.37-1.3,7.971,7.971,0,0,1,7.98,7.943v8.814a1.485,1.485,0,0,1-1.483,1.484" transform="translate(140 274.001)" fill="#59595c"/>
    <path id="Caminho_416" data-name="Caminho 416" d="M670.272,554.956a3.622,3.622,0,0,1-3.59-3.645V537.362a4.768,4.768,0,0,0-9.535,0v13.949a3.618,3.618,0,1,1-7.236,0V537.362a4.741,4.741,0,0,0-9.481,0v13.949a3.618,3.618,0,1,1-7.235,0V537.362a11.985,11.985,0,0,1,20.361-8.535,11.985,11.985,0,0,1,20.361,8.535,1.686,1.686,0,0,1-.014.246,1.735,1.735,0,0,1,.014.253v13.45a3.649,3.649,0,0,1-3.645,3.645" transform="translate(140 274.001)" fill="#402eb2"/>
    <path id="Caminho_417" data-name="Caminho 417" d="M692.58,532.594a7.806,7.806,0,0,0-7.7,7.7,7.524,7.524,0,0,0,7.7,7.314,7.154,7.154,0,0,0,7.314-7.314,7.523,7.523,0,0,0-7.314-7.7m10.849,22.2a3.8,3.8,0,0,1-3.184-2.15,13.154,13.154,0,0,1-7.665,2.15A14.536,14.536,0,0,1,677.7,540.3a14.724,14.724,0,0,1,14.881-14.882A14.536,14.536,0,0,1,707.075,540.3v10.849a3.566,3.566,0,0,1-3.646,3.645" transform="translate(140 274.001)" fill="#402eb2"/>
    <path id="Caminho_418" data-name="Caminho 418" d="M714.39,554.9a3.606,3.606,0,0,1-3.645-3.645V528.948a3.617,3.617,0,0,1,7.234,0v22.307a3.621,3.621,0,0,1-3.589,3.645" transform="translate(140 274.001)" fill="#402eb2"/>
    <path id="Caminho_419" data-name="Caminho 419" d="M736.42,532.428a7.536,7.536,0,1,0,7.535,7.535v-.055a7.516,7.516,0,0,0-7.535-7.48m0,22.306a14.771,14.771,0,1,1,7.535-27.487v-9.9a3.618,3.618,0,0,1,7.236,0v22.62a14.787,14.787,0,0,1-14.771,14.771" transform="translate(140 274.001)" fill="#402eb2"/>
    <path id="Caminho_420" data-name="Caminho 420" d="M769.632,532.594a7.806,7.806,0,0,0-7.7,7.7,7.524,7.524,0,0,0,7.7,7.314,7.154,7.154,0,0,0,7.314-7.314,7.524,7.524,0,0,0-7.314-7.7m10.849,22.2a3.8,3.8,0,0,1-3.184-2.15,13.154,13.154,0,0,1-7.665,2.15A14.536,14.536,0,0,1,754.751,540.3a14.724,14.724,0,0,1,14.881-14.882A14.536,14.536,0,0,1,784.127,540.3v10.849a3.566,3.566,0,0,1-3.646,3.645" transform="translate(140 274.001)" fill="#402eb2"/>
    <path id="Caminho_421" data-name="Caminho 421" d="M714.394,521.045a3.647,3.647,0,1,1,3.557-3.646,3.662,3.662,0,0,1-3.557,3.646" transform="translate(140 274.001)" fill="#402eb2"/>
    <path id="Caminho_422" data-name="Caminho 422" d="M792.505,544.438a3.245,3.245,0,1,0-3.245-3.245,3.245,3.245,0,0,0,3.245,3.245" transform="translate(140 274.001)" fill="#ff0073"/>
    <path id="Caminho_423" data-name="Caminho 423" d="M792.715,549.293a3.21,3.21,0,0,1,.646.1,3.132,3.132,0,0,1,2.059,1.783,2.886,2.886,0,0,1,.241.993c0,.014,0,.49,0,.509-.008.134-.012.268-.022.4-.01.15-.023.3-.041.448-.028.226-.058.452-.093.677-.029.186-.061.372-.1.555-.058.251-.128.5-.192.75a9.409,9.409,0,0,1-.567,1.588,12.161,12.161,0,0,1-1.341,2.248,12,12,0,0,1-2.2,2.237,11.075,11.075,0,0,1-.932.663,12.447,12.447,0,0,1-1.263.689,11.889,11.889,0,0,1-1.273.514,11.587,11.587,0,0,1-1.688.434c-.215.039-.431.072-.648.1-.151.021-.3.039-.456.05-.1.007-.36.045-.7.058a5.128,5.128,0,0,1-1.734-.26,2.736,2.736,0,0,1-1.04-.715,3.078,3.078,0,0,1-.871-1.974c0-.048,0-.351,0-.4a2.836,2.836,0,0,1,.063-.459,3.136,3.136,0,0,1,2.96-2.47c.178-.006.358-.009.536-.01a4.25,4.25,0,0,0,.685-.066,5.681,5.681,0,0,0,1.749-.6,3.711,3.711,0,0,0,.407-.243c.181-.13.354-.272.525-.415a5.4,5.4,0,0,0,1.849-2.986,5.225,5.225,0,0,0,.137-1.042c.007-.137.012-.274.027-.41a2.919,2.919,0,0,1,.234-.879,3.13,3.13,0,0,1,2.706-1.88c.019,0,.316,0,.336,0" transform="translate(140 274.001)" fill="#ff0073"/>
  </g>
</svg>
