<svg xmlns="http://www.w3.org/2000/svg" width="162.477" height="74.158" viewBox="0 0 162.477 74.158">
  <g id="Grupo_1000" data-name="Grupo 1000" transform="translate(-296.993 -420.532)">
    <path id="Caminho_382" data-name="Caminho 382" d="M215.937,220.651a1.45,1.45,0,0,1-1.446-1.484v-8.814a5.032,5.032,0,0,0-10.064,0v8.814a1.469,1.469,0,0,1-1.484,1.484,1.45,1.45,0,0,1-1.446-1.484V194.433a1.465,1.465,0,0,1,2.93,0v8.929a.415.415,0,0,0,.644.347,7.825,7.825,0,0,1,4.369-1.3,7.971,7.971,0,0,1,7.98,7.943v8.814a1.485,1.485,0,0,1-1.483,1.484" transform="translate(140 274.001)" fill="#ffcb05"/>
    <path id="Caminho_383" data-name="Caminho 383" d="M231.135,205.339a6.244,6.244,0,0,0-5.863,4.152.416.416,0,0,0,.392.556h10.98a.416.416,0,0,0,.4-.536,5.989,5.989,0,0,0-5.907-4.172m0,15.312a9.12,9.12,0,1,1,0-18.241,8.933,8.933,0,0,1,9.121,9.12,1.45,1.45,0,0,1-1.484,1.446H225.664a.417.417,0,0,0-.393.553,6.236,6.236,0,0,0,5.864,4.193,7.9,7.9,0,0,0,4.481-1.321,1.033,1.033,0,0,1,.572-.169,1.488,1.488,0,0,1,.571,2.853,8.817,8.817,0,0,1-5.437,1.566Z" transform="translate(140 274.001)" fill="#ffcb05"/>
    <path id="Caminho_384" data-name="Caminho 384" d="M254.122,205.377a6.39,6.39,0,0,0-6.3,6.305,6.183,6.183,0,0,0,6.3,6.039,5.906,5.906,0,0,0,6.039-6.039,6.184,6.184,0,0,0-6.039-6.305m7.447,15.236a1.593,1.593,0,0,1-1.408-1.484.416.416,0,0,0-.24-.377.421.421,0,0,0-.176-.039.414.414,0,0,0-.267.1,7.889,7.889,0,0,1-5.356,1.8,8.868,8.868,0,0,1-9.2-8.931,9.1,9.1,0,0,1,9.2-9.2,8.867,8.867,0,0,1,8.931,9.2v7.447a1.42,1.42,0,0,1-1.484,1.484" transform="translate(140 274.001)" fill="#ffcb05"/>
    <path id="Caminho_385" data-name="Caminho 385" d="M269.092,220.689a1.468,1.468,0,0,1-1.483-1.484V194.471a1.465,1.465,0,0,1,2.929,0v24.734a1.45,1.45,0,0,1-1.446,1.484" transform="translate(140 274.001)" fill="#ffcb05"/>
    <path id="Caminho_386" data-name="Caminho 386" d="M281.25,220.689a1.484,1.484,0,0,1-1.445-1.484V205.793a.416.416,0,0,0-.416-.416h-2.736a1.484,1.484,0,0,1-1.446-1.483,1.447,1.447,0,0,1,1.446-1.446h2.736a.416.416,0,0,0,.416-.416v-7.6a1.465,1.465,0,0,1,2.929,0v7.6a.416.416,0,0,0,.416.416h2.7a1.45,1.45,0,0,1,1.484,1.446,1.485,1.485,0,0,1-1.484,1.483h-2.7a.416.416,0,0,0-.416.416v13.412a1.486,1.486,0,0,1-1.484,1.484" transform="translate(140 274.001)" fill="#ffcb05"/>
    <path id="Caminho_387" data-name="Caminho 387" d="M306.44,220.651a1.45,1.45,0,0,1-1.446-1.484v-8.814a5.032,5.032,0,0,0-10.064,0v8.814a1.468,1.468,0,0,1-1.484,1.484A1.45,1.45,0,0,1,292,219.167V194.433a1.465,1.465,0,0,1,2.93,0v8.929a.417.417,0,0,0,.218.366.425.425,0,0,0,.2.05.412.412,0,0,0,.228-.069,7.825,7.825,0,0,1,4.369-1.3,7.971,7.971,0,0,1,7.981,7.943v8.814a1.486,1.486,0,0,1-1.484,1.484" transform="translate(140 274.001)" fill="#ffcb05"/>
    <path id="Caminho_388" data-name="Caminho 388" d="M194.07,187.734a3.622,3.622,0,0,1-3.59-3.645V170.14a4.768,4.768,0,0,0-9.535,0v13.949a3.618,3.618,0,1,1-7.236,0V170.14a4.741,4.741,0,0,0-9.481,0v13.949a3.618,3.618,0,1,1-7.235,0V170.14a11.986,11.986,0,0,1,20.362-8.535,11.985,11.985,0,0,1,20.361,8.535,1.573,1.573,0,0,1-.015.246,1.618,1.618,0,0,1,.015.253v13.45a3.65,3.65,0,0,1-3.646,3.645" transform="translate(140 274.001)" fill="#fff"/>
    <path id="Caminho_389" data-name="Caminho 389" d="M216.378,165.373a7.8,7.8,0,0,0-7.7,7.7,7.523,7.523,0,0,0,7.7,7.314,7.154,7.154,0,0,0,7.314-7.314,7.523,7.523,0,0,0-7.314-7.7m10.849,22.2a3.8,3.8,0,0,1-3.184-2.149,13.16,13.16,0,0,1-7.665,2.149A14.535,14.535,0,0,1,201.5,173.075a14.724,14.724,0,0,1,14.881-14.882,14.536,14.536,0,0,1,14.495,14.882v10.848a3.565,3.565,0,0,1-3.646,3.646" transform="translate(140 274.001)" fill="#fff"/>
    <path id="Caminho_390" data-name="Caminho 390" d="M238.188,187.679a3.607,3.607,0,0,1-3.646-3.645V161.727a3.618,3.618,0,0,1,7.236,0v22.307a3.622,3.622,0,0,1-3.59,3.645" transform="translate(140 274.001)" fill="#fff"/>
    <path id="Caminho_391" data-name="Caminho 391" d="M260.218,165.207a7.535,7.535,0,1,0,7.535,7.535v-.055a7.516,7.516,0,0,0-7.535-7.48m0,22.306a14.771,14.771,0,1,1,7.535-27.487v-9.9a3.618,3.618,0,0,1,7.236,0v22.62a14.787,14.787,0,0,1-14.771,14.771" transform="translate(140 274.001)" fill="#fff"/>
    <path id="Caminho_392" data-name="Caminho 392" d="M293.43,165.373a7.8,7.8,0,0,0-7.7,7.7,7.523,7.523,0,0,0,7.7,7.314,7.154,7.154,0,0,0,7.314-7.314,7.523,7.523,0,0,0-7.314-7.7m10.849,22.2a3.8,3.8,0,0,1-3.184-2.149,13.16,13.16,0,0,1-7.665,2.149,14.535,14.535,0,0,1-14.881-14.494,14.724,14.724,0,0,1,14.881-14.882,14.536,14.536,0,0,1,14.495,14.882v10.848a3.565,3.565,0,0,1-3.646,3.646" transform="translate(140 274.001)" fill="#fff"/>
    <path id="Caminho_393" data-name="Caminho 393" d="M238.192,153.823a3.647,3.647,0,1,1,3.557-3.646,3.662,3.662,0,0,1-3.557,3.646" transform="translate(140 274.001)" fill="#fff"/>
    <path id="Caminho_394" data-name="Caminho 394" d="M316.3,177.217a3.245,3.245,0,1,0-3.245-3.245,3.245,3.245,0,0,0,3.245,3.245" transform="translate(140 274.001)" fill="#ff0073"/>
    <path id="Caminho_395" data-name="Caminho 395" d="M316.513,182.071a3.135,3.135,0,0,1,2.7,1.886,2.887,2.887,0,0,1,.241.993c0,.014,0,.49,0,.509-.007.134-.011.268-.021.4-.011.15-.023.3-.041.448-.028.226-.058.452-.093.678-.029.185-.061.371-.1.554-.058.252-.128.5-.192.75a9.5,9.5,0,0,1-.567,1.588,12.221,12.221,0,0,1-1.341,2.248,11.971,11.971,0,0,1-2.2,2.237,10.7,10.7,0,0,1-.932.663,12.55,12.55,0,0,1-1.263.69,11.824,11.824,0,0,1-2.961.947c-.214.039-.43.072-.647.1-.151.021-.3.039-.456.05-.1.007-.36.045-.7.058a5.128,5.128,0,0,1-1.734-.26,2.725,2.725,0,0,1-1.04-.715,3.073,3.073,0,0,1-.871-1.974c0-.048,0-.351,0-.4a2.739,2.739,0,0,1,.063-.459,3.134,3.134,0,0,1,2.96-2.47c.178-.006.357-.009.536-.01a4.126,4.126,0,0,0,.684-.067,5.658,5.658,0,0,0,1.749-.6,3.761,3.761,0,0,0,.407-.242c.181-.131.354-.272.526-.416a5.4,5.4,0,0,0,1.849-2.986,5.13,5.13,0,0,0,.136-1.042c.007-.137.013-.274.027-.41a2.95,2.95,0,0,1,.235-.879,3.13,3.13,0,0,1,2.706-1.88h.336" transform="translate(140 274.001)" fill="#ff0073"/>
  </g>
</svg>
